RobotoSerifTextWide-HairlineItalic 01h.ufo
<glyph name="dollar" format="2">
  <advance width="652"/>
  <unicode hex="0024"/>
  <outline>
    <contour>
      <point x="315" y="8" type="curve" smooth="yes"/>
      <point x="465" y="8"/>
      <point x="578" y="75"/>
      <point x="574" y="198" type="curve" smooth="yes"/>
      <point x="571" y="300"/>
      <point x="464" y="340"/>
      <point x="375" y="375" type="curve" smooth="yes"/>
      <point x="271" y="415"/>
      <point x="176" y="446"/>
      <point x="173" y="534" type="curve" smooth="yes"/>
      <point x="171" y="615"/>
      <point x="242" y="667"/>
      <point x="380" y="667" type="curve" smooth="yes"/>
      <point x="469" y="667"/>
      <point x="567" y="652"/>
      <point x="599" y="605" type="curve"/>
      <point x="609" y="623"/>
      <point x="584" y="646"/>
      <point x="571" y="651" type="curve"/>
      <point x="554" y="552" type="line"/>
      <point x="607" y="552" type="line"/>
      <point x="623" y="643" type="line"/>
      <point x="579" y="671"/>
      <point x="501" y="698"/>
      <point x="385" y="698" type="curve" smooth="yes"/>
      <point x="226" y="698"/>
      <point x="132" y="634"/>
      <point x="135" y="531" type="curve" smooth="yes"/>
      <point x="138" y="431"/>
      <point x="232" y="392"/>
      <point x="318" y="356" type="curve" smooth="yes"/>
      <point x="421" y="314"/>
      <point x="533" y="287"/>
      <point x="536" y="195" type="curve" smooth="yes"/>
      <point x="539" y="92"/>
      <point x="451" y="39"/>
      <point x="319" y="39" type="curve" smooth="yes"/>
      <point x="198" y="39"/>
      <point x="99" y="66"/>
      <point x="46" y="127" type="curve"/>
      <point x="45" y="113"/>
      <point x="58" y="101"/>
      <point x="68" y="80" type="curve"/>
      <point x="87" y="185" type="line"/>
      <point x="36" y="185" type="line"/>
      <point x="20" y="97" type="line"/>
      <point x="68" y="54"/>
      <point x="162" y="8"/>
    </contour>
    <contour>
      <point x="244" y="-120" type="line"/>
      <point x="283" y="-120" type="line"/>
      <point x="308" y="21" type="line"/>
      <point x="309" y="27" type="line"/>
      <point x="423" y="675" type="line"/>
      <point x="425" y="688" type="line"/>
      <point x="443" y="787" type="line"/>
      <point x="404" y="787" type="line"/>
      <point x="386" y="688" type="line"/>
      <point x="385" y="679" type="line"/>
      <point x="270" y="30" type="line"/>
      <point x="268" y="25" type="line"/>
    </contour>
  </outline>
</glyph>
<glyph name="comma" format="2">
  <advance width="218"/>
  <unicode hex="002C"/>
  <outline>
    <contour>
      <point x="26" y="-123.0" type="line"/>
      <point x="105" y="-84.0"/>
      <point x="137" y="-16.0"/>
      <point x="137" y="21.0" type="curve" smooth="yes"/>
      <point x="137" y="49.0"/>
      <point x="118" y="66.0"/>
      <point x="93" y="66.0" type="curve" smooth="yes"/>
      <point x="67" y="66.0"/>
      <point x="50.0" y="49"/>
      <point x="50" y="27.0" type="curve" smooth="yes"/>
      <point x="50.0" y="4"/>
      <point x="68" y="-10.0"/>
      <point x="88" y="-10.0" type="curve" smooth="yes"/>
      <point x="104" y="-10.0"/>
      <point x="117" y="-4.0"/>
      <point x="123" y="9.0" type="curve"/>
      <point x="117" y="7.0"/>
      <point x="108" y="4.0"/>
      <point x="108" y="3.0" type="curve"/>
      <point x="103" y="-26.0"/>
      <point x="65" y="-78.0"/>
      <point x="1" y="-104.0" type="curve"/>
    </contour>
  </outline>
</glyph>
<glyph name="three" format="2">
  <advance width="652"/>
  <unicode hex="0033"/>
  <outline>
    <contour>
      <point x="310" y="-90" type="curve" smooth="yes"/>
      <point x="159" y="-90"/>
      <point x="55" y="-20"/>
      <point x="18" y="90" type="curve"/>
      <point x="52" y="103" type="line"/>
      <point x="80" y="22"/>
      <point x="161" y="-59"/>
      <point x="310" y="-59" type="curve" smooth="yes"/>
      <point x="445" y="-59"/>
      <point x="527" y="12"/>
      <point x="527" y="113" type="curve" smooth="yes"/>
      <point x="527" y="202"/>
      <point x="453.0" y="269.0"/>
      <point x="301" y="269" type="curve" smooth="yes"/>
      <point x="229" y="269" type="line"/>
      <point x="233" y="299" type="line"/>
      <point x="297" y="299" type="line" smooth="yes"/>
      <point x="453" y="299"/>
      <point x="542" y="358"/>
      <point x="542" y="458" type="curve" smooth="yes"/>
      <point x="542.0" y="541"/>
      <point x="474.69915664530197" y="587.0"/>
      <point x="364" y="587" type="curve" smooth="yes"/>
      <point x="266" y="587"/>
      <point x="209" y="554"/>
      <point x="173" y="526" type="curve"/>
      <point x="184" y="551"/>
      <point x="208" y="568"/>
      <point x="207" y="570" type="curve"/>
      <point x="189" y="467" type="line"/>
      <point x="138" y="467" type="line"/>
      <point x="154" y="559" type="line"/>
      <point x="191" y="582"/>
      <point x="257" y="618"/>
      <point x="363" y="618" type="curve" smooth="yes"/>
      <point x="495.33610880032586" y="618.0"/>
      <point x="585.0" y="559"/>
      <point x="585" y="459" type="curve" smooth="yes"/>
      <point x="585" y="347"/>
      <point x="470" y="283"/>
      <point x="329" y="283" type="curve"/>
      <point x="379" y="292" type="line"/>
      <point x="375" y="279" type="line"/>
      <point x="335" y="289" type="line"/>
      <point x="512.117880584708" y="275.69056388669827"/>
      <point x="570" y="200"/>
      <point x="570" y="111" type="curve" smooth="yes"/>
      <point x="570" y="-3"/>
      <point x="467" y="-90"/>
    </contour>
  </outline>
</glyph>
<glyph name="five" format="2">
  <advance width="652"/>
  <unicode hex="0035"/>
  <outline>
    <contour>
      <point x="301" y="-90" type="curve" smooth="yes"/>
      <point x="477" y="-90"/>
      <point x="590" y="19"/>
      <point x="590" y="159" type="curve" smooth="yes"/>
      <point x="590.0" y="274.07077429645557"/>
      <point x="504.6355174611141" y="366.0"/>
      <point x="353" y="366" type="curve" smooth="yes"/>
      <point x="258" y="366"/>
      <point x="180" y="328"/>
      <point x="127" y="259" type="curve"/>
      <point x="150" y="265" type="line"/>
      <point x="208" y="589" type="line"/>
      <point x="190" y="571" type="line"/>
      <point x="586" y="571" type="line"/>
      <point x="601" y="609" type="line"/>
      <point x="179" y="609" type="line"/>
      <point x="113" y="240" type="line"/>
      <point x="140" y="240" type="line"/>
      <point x="194" y="304"/>
      <point x="260" y="335"/>
      <point x="357" y="335" type="curve" smooth="yes"/>
      <point x="480.59838109268054" y="335.0"/>
      <point x="547.0" y="261"/>
      <point x="547" y="158" type="curve" smooth="yes"/>
      <point x="547" y="34"/>
      <point x="455" y="-59"/>
      <point x="300" y="-59" type="curve" smooth="yes"/>
      <point x="138" y="-59"/>
      <point x="89" y="37"/>
      <point x="66" y="90" type="curve"/>
      <point x="31" y="75" type="line"/>
      <point x="65" y="-3"/>
      <point x="135" y="-90"/>
    </contour>
  </outline>
</glyph>
<glyph name="eight" format="2">
  <advance width="652"/>
  <unicode hex="0038"/>
  <outline>
    <contour>
      <point x="325" y="21" type="curve" smooth="yes"/>
      <point x="196" y="21"/>
      <point x="100" y="97"/>
      <point x="100" y="189" type="curve" smooth="yes"/>
      <point x="100" y="201"/>
      <point x="101" y="213"/>
      <point x="103" y="223" type="curve" smooth="yes"/>
      <point x="121" y="314"/>
      <point x="211" y="361"/>
      <point x="326" y="361" type="curve" smooth="yes"/>
      <point x="466" y="361"/>
      <point x="548" y="288"/>
      <point x="548" y="198" type="curve" smooth="yes"/>
      <point x="548" y="182"/>
      <point x="546" y="167"/>
      <point x="542" y="152" type="curve" smooth="yes"/>
      <point x="521" y="76"/>
      <point x="446" y="21"/>
    </contour>
    <contour>
      <point x="373" y="391" type="curve" smooth="yes"/>
      <point x="286" y="391"/>
      <point x="198" y="444"/>
      <point x="198" y="542" type="curve" smooth="yes"/>
      <point x="198" y="555"/>
      <point x="200" y="568"/>
      <point x="204" y="580" type="curve" smooth="yes"/>
      <point x="225" y="645"/>
      <point x="298" y="689"/>
      <point x="391" y="689" type="curve" smooth="yes"/>
      <point x="488" y="689"/>
      <point x="569" y="633"/>
      <point x="569" y="543" type="curve" smooth="yes"/>
      <point x="569" y="530"/>
      <point x="567" y="518"/>
      <point x="564" y="507" type="curve" smooth="yes"/>
      <point x="545" y="435"/>
      <point x="466" y="391"/>
    </contour>
    <contour>
      <point x="327" y="-10" type="curve" smooth="yes"/>
      <point x="481" y="-10"/>
      <point x="591" y="78"/>
      <point x="591" y="192" type="curve" smooth="yes"/>
      <point x="591.0" y="275.05553651663774"/>
      <point x="523.8128861987509" y="352.383138991502"/>
      <point x="407" y="378" type="curve"/>
      <point x="431" y="366" type="line"/>
      <point x="433" y="379" type="line"/>
      <point x="405" y="369" type="line"/>
      <point x="524" y="380"/>
      <point x="611" y="452"/>
      <point x="611" y="546" type="curve" smooth="yes"/>
      <point x="611.0" y="646"/>
      <point x="511.47304431507564" y="720.0"/>
      <point x="389" y="720" type="curve" smooth="yes"/>
      <point x="249" y="720"/>
      <point x="156" y="640"/>
      <point x="156" y="540" type="curve" smooth="yes"/>
      <point x="156.0" y="457"/>
      <point x="225.05060908950415" y="398.52483601436427"/>
      <point x="305" y="377" type="curve"/>
      <point x="280" y="391" type="line"/>
      <point x="277" y="376" type="line"/>
      <point x="309" y="387" type="line"/>
      <point x="150" y="381"/>
      <point x="57" y="294"/>
      <point x="57" y="192" type="curve" smooth="yes"/>
      <point x="57.0" y="76"/>
      <point x="174.34606786678222" y="-10.0"/>
    </contour>
  </outline>
</glyph>
<glyph name="nine" format="2">
  <advance width="652"/>
  <unicode hex="0039"/>
  <outline>
    <contour>
      <point x="333" y="619" type="curve" smooth="yes"/>
      <point x="501.484533290091" y="619.0"/>
      <point x="603.0" y="513"/>
      <point x="603" y="366" type="curve" smooth="yes"/>
      <point x="603" y="171"/>
      <point x="446" y="-85"/>
      <point x="52" y="-93" type="curve"/>
      <point x="48" y="-62" type="line"/>
      <point x="327" y="-56"/>
      <point x="514" y="83"/>
      <point x="555" y="304" type="curve" smooth="yes"/>
      <point x="560" y="329"/>
      <point x="560.0" y="354.9078947368421"/>
      <point x="560" y="377" type="curve" smooth="yes"/>
      <point x="560.0" y="503.3961352657005"/>
      <point x="465.0" y="588.0"/>
      <point x="334" y="588" type="curve" smooth="yes"/>
      <point x="207" y="588"/>
      <point x="129" y="522"/>
      <point x="109" y="421" type="curve" smooth="yes"/>
      <point x="107" y="409"/>
      <point x="106" y="397"/>
      <point x="106" y="385" type="curve" smooth="yes"/>
      <point x="110" y="279"/>
      <point x="196" y="208"/>
      <point x="311" y="208" type="curve" smooth="yes"/>
      <point x="426" y="208"/>
      <point x="517" y="265"/>
      <point x="572" y="374" type="curve"/>
      <point x="584" y="347" type="line"/>
      <point x="534" y="239"/>
      <point x="431" y="177"/>
      <point x="314" y="177" type="curve" smooth="yes"/>
      <point x="176.85822183865275" y="177.0"/>
      <point x="63" y="263"/>
      <point x="63" y="390" type="curve" smooth="yes"/>
      <point x="63" y="501"/>
      <point x="155" y="619"/>
    </contour>
  </outline>
</glyph>
<glyph name="C" format="2">
  <advance width="778"/>
  <unicode hex="0043"/>
  <anchor x="411" y="741" name="top"/>
  <anchor x="411" y="0" name="bottom"/>
  <outline>
    <contour>
      <point x="449" y="689" type="curve"/>
      <point x="603.3621399176955" y="689.0"/>
      <point x="659.0144654158927" y="596.9588639735551"/>
      <point x="691" y="506" type="curve"/>
      <point x="724" y="506" type="line"/>
      <point x="760" y="710" type="line"/>
      <point x="735" y="710" type="line"/>
      <point x="690" y="548" type="line"/>
      <point x="705" y="558" type="line"/>
      <point x="676.0185578990628" y="622.9584047089971"/>
      <point x="616.3436293436293" y="720.0"/>
      <point x="447" y="720" type="curve"/>
      <point x="213" y="720"/>
      <point x="53" y="545"/>
      <point x="53" y="331" type="curve" smooth="yes"/>
      <point x="53" y="139.0"/>
      <point x="194.7043148102668" y="-10.0"/>
      <point x="401" y="-10" type="curve" smooth="yes"/>
      <point x="570" y="-10"/>
      <point x="664" y="70"/>
      <point x="719" y="198" type="curve"/>
      <point x="687" y="216" type="line"/>
      <point x="639" y="101"/>
      <point x="564" y="21"/>
      <point x="400" y="21" type="curve" smooth="yes"/>
      <point x="212.10304490671555" y="21.0"/>
      <point x="96.0" y="156"/>
      <point x="96" y="331" type="curve" smooth="yes"/>
      <point x="96" y="534.0"/>
      <point x="241.41193181818184" y="689.0"/>
    </contour>
  </outline>
</glyph>
<glyph name="E" format="2">
  <advance width="683"/>
  <unicode hex="0045"/>
  <anchor x="392" y="741" name="top"/>
  <anchor x="450" y="0" name="right"/>
  <anchor x="392" y="0" name="bottom"/>
  <outline>
    <contour>
      <point x="600" y="189.0" type="line"/>
      <point x="572" y="189.0" type="line"/>
      <point x="540" y="74.0" type="line" smooth="yes"/>
      <point x="532" y="38.0"/>
      <point x="489" y="31"/>
      <point x="389" y="31.0" type="curve" smooth="yes"/>
      <point x="151" y="31.0" type="line"/>
      <point x="265" y="679.0" type="line"/>
      <point x="462" y="679.0" type="line" smooth="yes"/>
      <point x="563" y="679"/>
      <point x="604" y="672.0"/>
      <point x="602" y="636.0" type="curve" smooth="yes"/>
      <point x="595" y="546.0" type="line"/>
      <point x="622" y="546.0" type="line"/>
      <point x="651" y="710.0" type="line"/>
      <point x="118" y="710.0" type="line"/>
      <point x="113" y="679.0" type="line"/>
      <point x="124" y="679.0" type="line" smooth="yes"/>
      <point x="184" y="679"/>
      <point x="223.3841777111908" y="671.5458794902211"/>
      <point x="218" y="641.0" type="curve" smooth="yes"/>
      <point x="117" y="68.0" type="line" smooth="yes"/>
      <point x="112" y="38"/>
      <point x="70.55339805825243" y="31.0"/>
      <point x="13" y="31.0" type="curve" smooth="yes"/>
      <point x="-1" y="31.0" type="line"/>
      <point x="-6" y="0.0" type="line"/>
      <point x="567" y="0.0" type="line"/>
    </contour>
    <contour>
      <point x="189" y="378.0" type="curve"/>
      <point x="185" y="350.0" type="line"/>
      <point x="292" y="349.0"/>
      <point x="397" y="346.0"/>
      <point x="502" y="345.0" type="curve"/>
      <point x="508" y="383.0" type="line"/>
      <point x="402" y="381.0"/>
      <point x="296" y="379.0"/>
    </contour>
  </outline>
</glyph>
<glyph name="H" format="2">
  <advance width="897"/>
  <unicode hex="0048"/>
  <guideline x="791" y="643" angle="80" identifier="C8UaKX9GfH"/>
  <anchor x="449" y="741" name="top"/>
  <anchor x="449" y="0" name="bottom"/>
  <outline>
    <contour>
      <point x="204" y="381.0" type="line"/>
      <point x="199" y="351.0" type="line"/>
      <point x="732" y="351.0" type="line"/>
      <point x="737" y="381.0" type="line"/>
    </contour>
    <contour>
      <point x="-6" y="0.0" type="line"/>
      <point x="258" y="0.0" type="line"/>
      <point x="265" y="31.0" type="line"/>
      <point x="254" y="31.0" type="line" smooth="yes"/>
      <point x="210" y="31.0"/>
      <point x="151" y="34"/>
      <point x="152" y="41.0" type="curve" smooth="yes"/>
      <point x="263" y="669.0" type="line" smooth="yes"/>
      <point x="264" y="676"/>
      <point x="320" y="679.0"/>
      <point x="364" y="679.0" type="curve" smooth="yes"/>
      <point x="375" y="679.0" type="line"/>
      <point x="380" y="710.0" type="line"/>
      <point x="117" y="710.0" type="line"/>
      <point x="112" y="679.0" type="line"/>
      <point x="124" y="679.0" type="line" smooth="yes"/>
      <point x="181" y="679"/>
      <point x="223" y="672"/>
      <point x="218" y="643.0" type="curve" smooth="yes"/>
      <point x="116" y="66.0" type="line" smooth="yes"/>
      <point x="111" y="37"/>
      <point x="69" y="31.0"/>
      <point x="13" y="31.0" type="curve" smooth="yes"/>
      <point x="-1" y="31.0" type="line"/>
    </contour>
    <contour>
      <point x="527" y="0.0" type="line"/>
      <point x="791" y="0.0" type="line"/>
      <point x="796" y="31.0" type="line"/>
      <point x="784" y="31.0" type="line" smooth="yes"/>
      <point x="726.0" y="31.0"/>
      <point x="684" y="38"/>
      <point x="689" y="66.0" type="curve" smooth="yes"/>
      <point x="791" y="644.0" type="line" smooth="yes"/>
      <point x="796" y="673"/>
      <point x="838" y="679.0"/>
      <point x="895" y="679.0" type="curve" smooth="yes"/>
      <point x="908" y="679.0" type="line"/>
      <point x="913" y="710.0" type="line"/>
      <point x="647" y="710.0" type="line"/>
      <point x="642" y="679.0" type="line"/>
      <point x="653" y="679.0" type="line" smooth="yes"/>
      <point x="697" y="679.0"/>
      <point x="756" y="676"/>
      <point x="755" y="669.0" type="curve" smooth="yes"/>
      <point x="645" y="44.0" type="line" smooth="yes"/>
      <point x="643.413148413473" y="34.98379780382358"/>
      <point x="587.0" y="31.0"/>
      <point x="543" y="31.0" type="curve" smooth="yes"/>
      <point x="532" y="31.0" type="line"/>
    </contour>
  </outline>
</glyph>
<glyph name="J" format="2">
  <advance width="598"/>
  <unicode hex="004A"/>
  <guideline x="495" y="643" angle="80" identifier="7SEgxahyU4"/>
  <guideline x="454" y="643" angle="80" identifier="mM68LTC7gp"/>
  <anchor x="389" y="741" name="top"/>
  <outline>
    <contour>
      <point x="454" y="643" type="curve" smooth="yes"/>
      <point x="377" y="207" type="line" smooth="yes"/>
      <point x="353.6479693740359" y="74.77291749454099"/>
      <point x="297.0" y="21.0"/>
      <point x="181" y="21" type="curve" smooth="yes"/>
      <point x="87" y="21"/>
      <point x="35" y="58"/>
      <point x="19" y="85" type="curve"/>
      <point x="8" y="82"/>
      <point x="10" y="49"/>
      <point x="48" y="45" type="curve"/>
      <point x="65" y="137" type="line"/>
      <point x="12" y="137" type="line"/>
      <point x="-5" y="50" type="line"/>
      <point x="13" y="29"/>
      <point x="82" y="-10"/>
      <point x="182" y="-10" type="curve" smooth="yes"/>
      <point x="309.5450643776824" y="-10.0"/>
      <point x="388.459908619683" y="44.93948217820355"/>
      <point x="416" y="201" type="curve" smooth="yes"/>
      <point x="494" y="643" type="line" smooth="yes"/>
      <point x="499.1155598031204" y="671.9881722176822"/>
      <point x="541.4519230769231" y="679"/>
      <point x="599" y="679" type="curve" smooth="yes"/>
      <point x="612" y="679" type="line"/>
      <point x="617" y="710" type="line"/>
      <point x="341" y="710" type="line"/>
      <point x="336" y="679" type="line"/>
      <point x="361" y="679" type="line" smooth="yes"/>
      <point x="418" y="679"/>
      <point x="459" y="672"/>
    </contour>
  </outline>
</glyph>
<glyph name="K" format="2">
  <advance width="786"/>
  <unicode hex="004B"/>
  <anchor x="402" y="741" name="top"/>
  <anchor x="402" y="0" name="bottom"/>
  <outline>
    <contour>
      <point x="-6" y="0.0" type="line"/>
      <point x="260" y="0.0" type="line"/>
      <point x="265" y="31.0" type="line"/>
      <point x="254" y="31.0" type="line" smooth="yes"/>
      <point x="209.56435643564356" y="31.0"/>
      <point x="150.89144570838877" y="33.718192347536394"/>
      <point x="152" y="40.0" type="curve" smooth="yes"/>
      <point x="263" y="669.0" type="line" smooth="yes"/>
      <point x="264" y="676"/>
      <point x="321" y="679.0"/>
      <point x="365" y="679.0" type="curve" smooth="yes"/>
      <point x="375" y="679.0" type="line"/>
      <point x="380" y="710.0" type="line"/>
      <point x="116" y="710.0" type="line"/>
      <point x="111" y="679.0" type="line"/>
      <point x="124" y="679.0" type="line" smooth="yes"/>
      <point x="181" y="679.0"/>
      <point x="223" y="672"/>
      <point x="218" y="643.0" type="curve" smooth="yes"/>
      <point x="116" y="65.0" type="line" smooth="yes"/>
      <point x="111" y="39"/>
      <point x="69.0" y="31.0"/>
      <point x="13" y="31.0" type="curve" smooth="yes"/>
      <point x="-1" y="31.0" type="line"/>
    </contour>
    <contour>
      <point x="485" y="0.0" type="line"/>
      <point x="735" y="0.0" type="line"/>
      <point x="740" y="31.0" type="line"/>
      <point x="725" y="31.0" type="line" smooth="yes"/>
      <point x="673" y="31.0"/>
      <point x="654" y="37.0"/>
      <point x="627" y="64.0" type="curve" smooth="yes"/>
      <point x="294" y="383.0" type="line"/>
      <point x="296" y="358.0" type="line"/>
      <point x="664" y="650.0" type="line" smooth="yes"/>
      <point x="694" y="674.0"/>
      <point x="716" y="679.0"/>
      <point x="758" y="679.0" type="curve" smooth="yes"/>
      <point x="775" y="679.0" type="line"/>
      <point x="780" y="710.0" type="line"/>
      <point x="542" y="710.0" type="line"/>
      <point x="537" y="679.0" type="line"/>
      <point x="547" y="679.0" type="line" smooth="yes"/>
      <point x="590" y="679.0"/>
      <point x="639" y="676.0"/>
      <point x="640" y="669.0" type="curve"/>
      <point x="260" y="367.0" type="line"/>
      <point x="259" y="362.0" type="line"/>
      <point x="599" y="41.0" type="line"/>
      <point x="598" y="34.0"/>
      <point x="544" y="31.0"/>
      <point x="501" y="31.0" type="curve" smooth="yes"/>
      <point x="490" y="31.0" type="line"/>
    </contour>
  </outline>
</glyph>
<glyph name="O" format="2">
  <advance width="857"/>
  <unicode hex="004F"/>
  <anchor x="429" y="741" name="top"/>
  <anchor x="429" y="0" name="bottom"/>
  <outline>
    <contour>
      <point x="816" y="555"/>
      <point x="686.177028990137" y="720.0"/>
      <point x="457" y="720" type="curve" smooth="yes"/>
      <point x="207" y="720"/>
      <point x="53" y="529"/>
      <point x="53" y="332" type="curve" smooth="yes"/>
      <point x="53" y="156"/>
      <point x="183.79289734444833" y="-10.0"/>
      <point x="413" y="-10" type="curve" smooth="yes"/>
      <point x="663" y="-10"/>
      <point x="816" y="181"/>
      <point x="816" y="378" type="curve" smooth="yes"/>
    </contour>
    <contour>
      <point x="411" y="21" type="curve" smooth="yes"/>
      <point x="196.29381084572074" y="21.0"/>
      <point x="96.0" y="175"/>
      <point x="96" y="335" type="curve" smooth="yes"/>
      <point x="96" y="381"/>
      <point x="104" y="426"/>
      <point x="119" y="469" type="curve" smooth="yes"/>
      <point x="167" y="591"/>
      <point x="286" y="689"/>
      <point x="458" y="689" type="curve" smooth="yes"/>
      <point x="673.7384304482903" y="689.0"/>
      <point x="773.0" y="536"/>
      <point x="773" y="375" type="curve" smooth="yes"/>
      <point x="773" y="329"/>
      <point x="765" y="284"/>
      <point x="750" y="241" type="curve" smooth="yes"/>
      <point x="702" y="119"/>
      <point x="584" y="21"/>
    </contour>
  </outline>
</glyph>
<glyph name="c" format="2">
  <advance width="564"/>
  <unicode hex="0063"/>
  <anchor x="301" y="508" name="top"/>
  <anchor x="309" y="0" name="bottom"/>
  <outline>
    <contour>
      <point x="355" y="518" type="curve" smooth="yes"/>
      <point x="169" y="518"/>
      <point x="47" y="382"/>
      <point x="47" y="225" type="curve" smooth="yes"/>
      <point x="47.0" y="84"/>
      <point x="146.7587545608913" y="-12.0"/>
      <point x="297" y="-12" type="curve" smooth="yes"/>
      <point x="406" y="-12"/>
      <point x="474" y="40"/>
      <point x="516" y="114" type="curve"/>
      <point x="489" y="132" type="line"/>
      <point x="454" y="73"/>
      <point x="397" y="19"/>
      <point x="296" y="19" type="curve" smooth="yes"/>
      <point x="164.7749306737481" y="19.0"/>
      <point x="90.0" y="101.93279208782955"/>
      <point x="90" y="224" type="curve" smooth="yes"/>
      <point x="90" y="364"/>
      <point x="192" y="487"/>
      <point x="356" y="487" type="curve" smooth="yes"/>
      <point x="435" y="487"/>
      <point x="487" y="459"/>
      <point x="508" y="425" type="curve"/>
      <point x="512" y="435"/>
      <point x="529" y="448"/>
      <point x="483" y="461" type="curve"/>
      <point x="469" y="379" type="line"/>
      <point x="520" y="379" type="line"/>
      <point x="534" y="460" type="line"/>
      <point x="527" y="473"/>
      <point x="466" y="518"/>
    </contour>
  </outline>
</glyph>
<glyph name="d" format="2">
  <advance width="637"/>
  <unicode hex="0064"/>
  <anchor x="565" y="735" name="right"/>
  <anchor x="303" y="0" name="bottom"/>
  <outline>
    <contour>
      <point x="540" y="-7" type="curve" smooth="yes"/>
      <point x="569" y="-7"/>
      <point x="602" y="4"/>
      <point x="614" y="13" type="curve"/>
      <point x="618" y="42" type="line"/>
      <point x="610" y="40"/>
      <point x="580" y="24"/>
      <point x="540" y="24" type="curve" smooth="yes"/>
      <point x="514" y="24"/>
      <point x="497" y="34"/>
      <point x="497" y="58" type="curve" smooth="yes"/>
      <point x="497" y="79"/>
      <point x="502" y="113"/>
      <point x="507" y="139" type="curve" smooth="yes"/>
      <point x="612" y="735" type="line"/>
      <point x="474" y="735" type="line"/>
      <point x="469" y="709" type="line"/>
      <point x="481" y="707" type="line" smooth="yes"/>
      <point x="537" y="697"/>
      <point x="564" y="691"/>
      <point x="559" y="662" type="curve" smooth="yes"/>
      <point x="474" y="175" type="line"/>
      <point x="474" y="172" type="line"/>
      <point x="465" y="136"/>
      <point x="457" y="85"/>
      <point x="457" y="58" type="curve" smooth="yes"/>
      <point x="457.0" y="12.0"/>
      <point x="492.15294117647056" y="-7.0"/>
    </contour>
    <contour>
      <point x="227" y="-11" type="curve" smooth="yes"/>
      <point x="342" y="-11"/>
      <point x="425" y="74"/>
      <point x="499" y="209" type="curve"/>
      <point x="492" y="241" type="line"/>
      <point x="418" y="113"/>
      <point x="337" y="20"/>
      <point x="227" y="20" type="curve" smooth="yes"/>
      <point x="130.93573064454995" y="20.0"/>
      <point x="94.0" y="100"/>
      <point x="94" y="195" type="curve" smooth="yes"/>
      <point x="94" y="350"/>
      <point x="184" y="487"/>
      <point x="353" y="487" type="curve" smooth="yes"/>
      <point x="438" y="487"/>
      <point x="508" y="437"/>
      <point x="522" y="348" type="curve"/>
      <point x="542" y="381" type="line"/>
      <point x="526" y="469"/>
      <point x="446" y="518"/>
      <point x="352" y="518" type="curve" smooth="yes"/>
      <point x="167" y="518"/>
      <point x="51" y="367"/>
      <point x="51" y="196" type="curve" smooth="yes"/>
      <point x="51.0" y="80"/>
      <point x="101.6412313025364" y="-11.0"/>
    </contour>
  </outline>
</glyph>
<glyph name="e" format="2">
  <advance width="538"/>
  <unicode hex="0065"/>
  <anchor x="274" y="508" name="top"/>
  <anchor x="404" y="1" name="right"/>
  <anchor x="292" y="0" name="bottom"/>
  <outline>
    <contour>
      <point x="281" y="-12" type="curve" smooth="yes"/>
      <point x="386" y="-12"/>
      <point x="456" y="39"/>
      <point x="496" y="104" type="curve"/>
      <point x="469" y="123" type="line"/>
      <point x="424" y="57"/>
      <point x="370" y="19"/>
      <point x="279" y="19" type="curve" smooth="yes"/>
      <point x="168" y="19"/>
      <point x="90" y="86"/>
      <point x="90" y="216" type="curve" smooth="yes"/>
      <point x="90" y="370"/>
      <point x="190" y="487"/>
      <point x="332" y="487" type="curve" smooth="yes"/>
      <point x="410.4249489296304" y="487.0"/>
      <point x="455.0" y="450"/>
      <point x="455" y="394" type="curve" smooth="yes"/>
      <point x="455" y="291"/>
      <point x="348" y="244"/>
      <point x="68" y="241" type="curve"/>
      <point x="61" y="216" type="line"/>
      <point x="66" y="216"/>
      <point x="71" y="216"/>
      <point x="76" y="216" type="curve" smooth="yes"/>
      <point x="351" y="216"/>
      <point x="495" y="270"/>
      <point x="495" y="393" type="curve" smooth="yes"/>
      <point x="495.0" y="465"/>
      <point x="438.9987762593821" y="518.0"/>
      <point x="331" y="518" type="curve" smooth="yes"/>
      <point x="153" y="518"/>
      <point x="47" y="368"/>
      <point x="47" y="215" type="curve" smooth="yes"/>
      <point x="47" y="69"/>
      <point x="148" y="-12"/>
    </contour>
  </outline>
</glyph>
<glyph name="l" format="2">
  <advance width="286"/>
  <unicode hex="006C"/>
  <anchor x="152" y="746" name="top"/>
  <anchor x="238" y="735" name="right"/>
  <anchor x="282" y="391" name="mid"/>
  <anchor x="155" y="0" name="bottom"/>
  <outline>
    <contour>
      <point x="149" y="185" type="curve" smooth="yes"/>
      <point x="246" y="735" type="line"/>
      <point x="109" y="735" type="line"/>
      <point x="104" y="709" type="line"/>
      <point x="116" y="707" type="line" smooth="yes"/>
      <point x="168" y="698"/>
      <point x="198" y="692"/>
      <point x="193" y="662" type="curve" smooth="yes"/>
      <point x="112" y="203" type="line" smooth="yes"/>
      <point x="101.55767303501145" y="143.82681386506488"/>
      <point x="92.0" y="93"/>
      <point x="92" y="61" type="curve" smooth="yes"/>
      <point x="92.0" y="13"/>
      <point x="127.56626506024097" y="-7.0"/>
      <point x="174" y="-7" type="curve" smooth="yes"/>
      <point x="203" y="-7"/>
      <point x="236" y="4"/>
      <point x="248" y="13" type="curve"/>
      <point x="253" y="42" type="line"/>
      <point x="245" y="40"/>
      <point x="214" y="24"/>
      <point x="173" y="24" type="curve" smooth="yes"/>
      <point x="148.0" y="24.0"/>
      <point x="132.0" y="35"/>
      <point x="132" y="62" type="curve" smooth="yes"/>
      <point x="132.0" y="89"/>
      <point x="141.5209160840835" y="142.59282315717445"/>
    </contour>
  </outline>
</glyph>
<glyph name="m" format="2">
  <advance width="1005"/>
  <unicode hex="006D"/>
  <anchor x="510" y="-10" name="bottom"/>
  <outline>
    <contour>
      <point x="861" y="183" type="line" smooth="yes"/>
      <point x="852" y="135"/>
      <point x="841" y="87"/>
      <point x="842" y="60" type="curve" smooth="yes"/>
      <point x="843" y="34"/>
      <point x="859" y="24"/>
      <point x="885" y="24" type="curve" smooth="yes"/>
      <point x="925" y="24"/>
      <point x="955" y="40"/>
      <point x="964" y="42" type="curve"/>
      <point x="960" y="13" type="line"/>
      <point x="946" y="4"/>
      <point x="914" y="-7"/>
      <point x="886" y="-7" type="curve" smooth="yes"/>
      <point x="838" y="-7"/>
      <point x="803" y="12"/>
      <point x="802" y="59" type="curve" smooth="yes"/>
      <point x="801" y="91"/>
      <point x="812" y="136"/>
      <point x="824" y="201" type="curve" smooth="yes"/>
      <point x="845" y="313" type="line" smooth="yes"/>
      <point x="851.8758345872117" y="349.67111779846255"/>
      <point x="858.0" y="381"/>
      <point x="858" y="417" type="curve" smooth="yes"/>
      <point x="858.0" y="456"/>
      <point x="829.0" y="484.0"/>
      <point x="772" y="484" type="curve" smooth="yes"/>
      <point x="680" y="484"/>
      <point x="597" y="401"/>
      <point x="517" y="281" type="curve"/>
      <point x="509" y="308" type="line"/>
      <point x="588" y="434"/>
      <point x="678" y="518"/>
      <point x="779" y="518" type="curve" smooth="yes"/>
      <point x="855.0" y="518.0"/>
      <point x="899.0" y="475"/>
      <point x="899" y="417" type="curve" smooth="yes"/>
      <point x="899.0" y="384"/>
      <point x="891.9299005905747" y="346.67072395845764"/>
      <point x="885" y="310" type="curve" smooth="yes"/>
    </contour>
    <contour>
      <point x="441" y="0" type="line"/>
      <point x="497" y="313" type="line" smooth="yes"/>
      <point x="503.56916695578457" y="349.7169510207244"/>
      <point x="507.0" y="379"/>
      <point x="507" y="414" type="curve" smooth="yes"/>
      <point x="507.0" y="454"/>
      <point x="481.0" y="484.0"/>
      <point x="423" y="484" type="curve" smooth="yes"/>
      <point x="332" y="484"/>
      <point x="249" y="401"/>
      <point x="169" y="281" type="curve"/>
      <point x="160" y="308" type="line"/>
      <point x="240" y="434"/>
      <point x="329" y="518"/>
      <point x="430" y="518" type="curve" smooth="yes"/>
      <point x="506.0" y="518.0"/>
      <point x="548.0" y="474"/>
      <point x="548" y="415" type="curve" smooth="yes"/>
      <point x="548.0" y="382"/>
      <point x="543.5697761855442" y="349.720356179917"/>
      <point x="537" y="313" type="curve" smooth="yes"/>
      <point x="481" y="0" type="line"/>
    </contour>
    <contour>
      <point x="90" y="0" type="line"/>
      <point x="167" y="435" type="line" smooth="yes"/>
      <point x="172" y="464"/>
      <point x="146" y="470"/>
      <point x="89" y="480" type="curve" smooth="yes"/>
      <point x="78" y="482" type="line"/>
      <point x="83" y="508" type="line"/>
      <point x="220" y="508" type="line"/>
      <point x="189" y="334" type="line"/>
      <point x="188" y="327" type="line"/>
      <point x="130" y="0" type="line"/>
    </contour>
  </outline>
</glyph>
<glyph name="o" format="2">
  <advance width="620"/>
  <unicode hex="006F"/>
  <anchor x="310" y="508" name="top"/>
  <anchor x="400" y="0" name="right"/>
  <anchor x="310" y="0" name="bottom"/>
  <outline>
    <contour>
      <point x="47" y="95"/>
      <point x="144.7653835028623" y="-12.0"/>
      <point x="285" y="-12" type="curve" smooth="yes"/>
      <point x="458" y="-12"/>
      <point x="573" y="127"/>
      <point x="573" y="278" type="curve" smooth="yes"/>
      <point x="573" y="411"/>
      <point x="475.2346164971377" y="518.0"/>
      <point x="335" y="518" type="curve" smooth="yes"/>
      <point x="162" y="518"/>
      <point x="47" y="379"/>
      <point x="47" y="228" type="curve" smooth="yes"/>
    </contour>
    <contour>
      <point x="284" y="19" type="curve" smooth="yes"/>
      <point x="164" y="19"/>
      <point x="90" y="106"/>
      <point x="90" y="224" type="curve" smooth="yes"/>
      <point x="90" y="266"/>
      <point x="98" y="306"/>
      <point x="113" y="342" type="curve" smooth="yes"/>
      <point x="148" y="426"/>
      <point x="224" y="487"/>
      <point x="336" y="487" type="curve" smooth="yes"/>
      <point x="456" y="487"/>
      <point x="530" y="400"/>
      <point x="530" y="281" type="curve" smooth="yes"/>
      <point x="530" y="239"/>
      <point x="523" y="199"/>
      <point x="507" y="164" type="curve" smooth="yes"/>
      <point x="470" y="80"/>
      <point x="390" y="19"/>
    </contour>
  </outline>
</glyph>
<glyph name="r" format="2">
  <advance width="410"/>
  <unicode hex="0072"/>
  <anchor x="226" y="508" name="top"/>
  <anchor x="181" y="0" name="bottom"/>
  <outline>
    <contour>
      <point x="406" y="513" type="line"/>
      <point x="405" y="514"/>
      <point x="392" y="518"/>
      <point x="369" y="518" type="curve" smooth="yes"/>
      <point x="265" y="518"/>
      <point x="200" y="389"/>
      <point x="154" y="281" type="curve"/>
      <point x="164" y="262" type="line"/>
      <point x="211" y="370"/>
      <point x="276" y="470"/>
      <point x="353" y="470" type="curve" smooth="yes"/>
      <point x="377" y="470"/>
      <point x="395" y="464"/>
      <point x="398" y="463" type="curve"/>
    </contour>
    <contour>
      <point x="89" y="0" type="line"/>
      <point x="129" y="0" type="line"/>
      <point x="187" y="327" type="line"/>
      <point x="188" y="334" type="line"/>
      <point x="219" y="508" type="line"/>
      <point x="82" y="508" type="line"/>
      <point x="77" y="482" type="line"/>
      <point x="88" y="480" type="line" smooth="yes"/>
      <point x="145" y="470"/>
      <point x="171" y="464"/>
      <point x="166" y="435" type="curve" smooth="yes"/>
    </contour>
  </outline>
</glyph>
<glyph name="t" format="2">
  <advance width="383"/>
  <unicode hex="0074"/>
  <anchor x="170" y="675" name="top"/>
  <anchor x="290" y="681" name="right"/>
  <anchor x="248" y="0" name="bottom"/>
  <outline>
    <contour>
      <point x="215" y="-11" type="curve" smooth="yes"/>
      <point x="258.56" y="-11.0"/>
      <point x="294.3154085462482" y="-0.8738365815007167"/>
      <point x="314" y="7" type="curve"/>
      <point x="320" y="40" type="line"/>
      <point x="315.96039603960395" y="40.0"/>
      <point x="272.53465346534654" y="22.0"/>
      <point x="218" y="22" type="curve" smooth="yes"/>
      <point x="166.3013698630137" y="22.0"/>
      <point x="144.0" y="45.377049180327866"/>
      <point x="144" y="84" type="curve" smooth="yes"/>
      <point x="144.0" y="107.10000000000001"/>
      <point x="146" y="129"/>
      <point x="152" y="161" type="curve" smooth="yes"/>
      <point x="238" y="648" type="line"/>
      <point x="201" y="648" type="line"/>
      <point x="185" y="551" type="line" smooth="yes"/>
      <point x="177" y="511"/>
      <point x="133" y="503"/>
      <point x="67" y="503" type="curve" smooth="yes"/>
      <point x="63" y="503" type="line"/>
      <point x="59" y="477" type="line"/>
      <point x="386" y="477" type="line"/>
      <point x="391" y="508" type="line"/>
      <point x="194" y="508" type="line"/>
      <point x="171" y="496" type="line"/>
      <point x="112" y="163" type="line" smooth="yes"/>
      <point x="106" y="130"/>
      <point x="104.0" y="107.1219512195122"/>
      <point x="104" y="84" type="curve" smooth="yes"/>
      <point x="104.0" y="17.297872340425528"/>
      <point x="155.0" y="-11.0"/>
    </contour>
  </outline>
</glyph>
<glyph name="u" format="2">
  <advance width="636"/>
  <unicode hex="0075"/>
  <anchor x="303" y="508" name="top"/>
  <anchor x="446" y="0" name="right"/>
  <anchor x="301" y="0" name="bottom"/>
  <outline>
    <contour>
      <point x="156" y="199" type="curve" smooth="yes"/>
      <point x="213" y="508" type="line"/>
      <point x="76" y="508" type="line"/>
      <point x="71" y="482" type="line"/>
      <point x="82" y="480" type="line" smooth="yes"/>
      <point x="138.31382303359135" y="469.76112308480157"/>
      <point x="164" y="462"/>
      <point x="159" y="433" type="curve" smooth="yes"/>
      <point x="116" y="199" type="line" smooth="yes"/>
      <point x="109" y="161"/>
      <point x="104.0" y="123"/>
      <point x="104" y="97" type="curve" smooth="yes"/>
      <point x="104.0" y="33"/>
      <point x="150.0" y="-7.0"/>
      <point x="226" y="-7" type="curve" smooth="yes"/>
      <point x="330" y="-7"/>
      <point x="417" y="77"/>
      <point x="497" y="207" type="curve"/>
      <point x="490" y="234" type="line"/>
      <point x="408" y="110"/>
      <point x="327" y="27"/>
      <point x="233" y="27" type="curve" smooth="yes"/>
      <point x="176.64044943820224" y="27.0"/>
      <point x="145.0" y="53.0"/>
      <point x="145" y="97" type="curve" smooth="yes"/>
      <point x="145.0" y="126.0"/>
      <point x="148.69210002255878" y="159.3834895959765"/>
    </contour>
    <contour>
      <point x="535" y="-7" type="curve" smooth="yes"/>
      <point x="564" y="-7"/>
      <point x="596" y="4"/>
      <point x="610" y="13" type="curve"/>
      <point x="614" y="42" type="line"/>
      <point x="605" y="40"/>
      <point x="575" y="24"/>
      <point x="535" y="24" type="curve" smooth="yes"/>
      <point x="509.0" y="24.0"/>
      <point x="493.0" y="34.294117647058826"/>
      <point x="493" y="59" type="curve" smooth="yes"/>
      <point x="493.0" y="80.72839506172839"/>
      <point x="496.4615227650534" y="113.23541385084157"/>
      <point x="501" y="139" type="curve" smooth="yes"/>
      <point x="566" y="508" type="line"/>
      <point x="526" y="508" type="line"/>
      <point x="468" y="179" type="line"/>
      <point x="466" y="168" type="line"/>
      <point x="458.1385492821361" y="132.62347176961268"/>
      <point x="453.0" y="86.5090909090909"/>
      <point x="453" y="60" type="curve" smooth="yes"/>
      <point x="453.0" y="13.615384615384613"/>
      <point x="487.0" y="-7.0"/>
    </contour>
  </outline>
</glyph>
<glyph name="dieresis" format="2">
  <advance width="583"/>
  <unicode hex="00A8"/>
  <anchor x="291" y="526" name="_top"/>
  <outline>
    <contour>
      <point x="188" y="656" type="curve" smooth="yes"/>
      <point x="214" y="656"/>
      <point x="233" y="670"/>
      <point x="232" y="696" type="curve" smooth="yes"/>
      <point x="231" y="723"/>
      <point x="212" y="737"/>
      <point x="186" y="737" type="curve" smooth="yes"/>
      <point x="162" y="737"/>
      <point x="142" y="723"/>
      <point x="143" y="696" type="curve" smooth="yes"/>
      <point x="144" y="670"/>
      <point x="164" y="656"/>
    </contour>
    <contour>
      <point x="398" y="656" type="curve" smooth="yes"/>
      <point x="423" y="656"/>
      <point x="442" y="670"/>
      <point x="441" y="696" type="curve" smooth="yes"/>
      <point x="440" y="723"/>
      <point x="421" y="737"/>
      <point x="396" y="737" type="curve" smooth="yes"/>
      <point x="370" y="737"/>
      <point x="352" y="723"/>
      <point x="353" y="696" type="curve" smooth="yes"/>
      <point x="354" y="670"/>
      <point x="372" y="656"/>
    </contour>
  </outline>
</glyph>
<glyph name="macron" format="2">
  <advance width="582"/>
  <unicode hex="00AF"/>
  <anchor x="291" y="526" name="_top"/>
  <outline>
    <contour>
      <point x="153" y="689" type="line"/>
      <point x="147" y="658" type="line"/>
      <point x="434" y="658" type="line"/>
      <point x="440" y="689" type="line"/>
    </contour>
  </outline>
</glyph>
<glyph name="icircumflex" format="2">
  <advance width="303"/>
  <unicode hex="00EE"/>
  <outline>
    <contour>
      <point x="234" y="739" type="line"/>
      <point x="327" y="606" type="line"/>
      <point x="325" y="596" type="line"/>
      <point x="301" y="596" type="line"/>
      <point x="174" y="725" type="line"/>
      <point x="223" y="725" type="line"/>
      <point x="43" y="596" type="line"/>
      <point x="22" y="596" type="line"/>
      <point x="24" y="606" type="line"/>
      <point x="162" y="739" type="line"/>
    </contour>
    <component base="dotlessi"/>
  </outline>
</glyph>
<glyph name="Tbar" format="2">
  <advance width="732"/>
  <unicode hex="0166"/>
  <outline>
    <contour>
      <point x="145" y="370" type="line"/>
      <point x="138" y="340" type="line"/>
      <point x="591" y="340" type="line"/>
      <point x="598" y="370" type="line"/>
    </contour>
    <component base="T"/>
  </outline>
</glyph>
<glyph name="icaron" format="2">
  <advance width="303"/>
  <unicode hex="01D0"/>
  <outline>
    <contour>
      <point x="167" y="596" type="line"/>
      <point x="74" y="729" type="line"/>
      <point x="76" y="739" type="line"/>
      <point x="100" y="739" type="line"/>
      <point x="227" y="610" type="line"/>
      <point x="178" y="610" type="line"/>
      <point x="358" y="739" type="line"/>
      <point x="379" y="739" type="line"/>
      <point x="376" y="729" type="line"/>
      <point x="239" y="596" type="line"/>
    </contour>
    <component base="dotlessi"/>
  </outline>
</glyph>
<glyph name="Oogonek" format="2">
  <advance width="857"/>
  <unicode hex="01EA"/>
  <outline>
    <contour>
      <point x="408" y="21" type="curve" smooth="yes"/>
      <point x="200" y="21"/>
      <point x="98" y="166"/>
      <point x="94" y="321" type="curve" smooth="yes"/>
      <point x="92" y="372"/>
      <point x="101" y="422"/>
      <point x="116" y="469" type="curve" smooth="yes"/>
      <point x="165" y="591"/>
      <point x="283" y="689"/>
      <point x="455" y="689" type="curve" smooth="yes"/>
      <point x="664" y="689"/>
      <point x="765" y="544"/>
      <point x="770" y="389" type="curve" smooth="yes"/>
      <point x="771" y="338"/>
      <point x="763" y="288"/>
      <point x="747" y="241" type="curve" smooth="yes"/>
      <point x="699" y="119"/>
      <point x="581" y="21"/>
    </contour>
    <contour>
      <point x="431" y="-233" type="curve" smooth="yes"/>
      <point x="475" y="-233"/>
      <point x="511" y="-212"/>
      <point x="547" y="-181" type="curve"/>
      <point x="527" y="-159" type="line"/>
      <point x="498" y="-184"/>
      <point x="468" y="-202"/>
      <point x="427" y="-202" type="curve" smooth="yes"/>
      <point x="388" y="-202"/>
      <point x="364" y="-180"/>
      <point x="362" y="-145" type="curve" smooth="yes"/>
      <point x="361" y="-78"/>
      <point x="403" y="-47"/>
      <point x="584" y="30" type="curve" smooth="yes"/>
      <point x="717" y="87"/>
      <point x="817" y="230"/>
      <point x="813" y="389" type="curve" smooth="yes"/>
      <point x="808" y="562"/>
      <point x="678" y="720"/>
      <point x="454" y="720" type="curve" smooth="yes"/>
      <point x="199" y="720"/>
      <point x="44" y="522"/>
      <point x="50" y="321" type="curve" smooth="yes"/>
      <point x="55" y="149"/>
      <point x="185" y="-10"/>
      <point x="409" y="-10" type="curve" smooth="yes"/>
      <point x="439" y="-10"/>
      <point x="469" y="-7"/>
      <point x="497" y="-1" type="curve"/>
      <point x="528" y="25" type="line"/>
      <point x="397" y="-20"/>
      <point x="317" y="-74"/>
      <point x="319" y="-145" type="curve" smooth="yes"/>
      <point x="321" y="-197"/>
      <point x="362" y="-233"/>
    </contour>
  </outline>
</glyph>
<glyph name="dotaccent" format="2">
  <advance width="583"/>
  <unicode hex="02D9"/>
  <anchor x="292" y="526" name="_top"/>
  <outline>
    <contour>
      <point x="296" y="656" type="curve" smooth="yes"/>
      <point x="271" y="656"/>
      <point x="252" y="670"/>
      <point x="251" y="696" type="curve" smooth="yes"/>
      <point x="250" y="723"/>
      <point x="269" y="737"/>
      <point x="294" y="737" type="curve" smooth="yes"/>
      <point x="320" y="737"/>
      <point x="338" y="723"/>
      <point x="339" y="696" type="curve" smooth="yes"/>
      <point x="340" y="670"/>
      <point x="322" y="656"/>
    </contour>
  </outline>
</glyph>
<glyph name="ohorntilde" format="2">
  <advance width="619"/>
  <unicode hex="1EE1"/>
  <outline>
    <contour>
      <point x="410" y="616" type="curve" smooth="yes"/>
      <point x="471" y="616"/>
      <point x="489" y="652"/>
      <point x="517" y="717" type="curve"/>
      <point x="488" y="728" type="line"/>
      <point x="467" y="679"/>
      <point x="453" y="651"/>
      <point x="415" y="651" type="curve" smooth="yes"/>
      <point x="359" y="651"/>
      <point x="344" y="727"/>
      <point x="263" y="727" type="curve" smooth="yes"/>
      <point x="209" y="727"/>
      <point x="180" y="698"/>
      <point x="158" y="628" type="curve"/>
      <point x="186" y="616" type="line"/>
      <point x="203" y="667"/>
      <point x="221" y="692"/>
      <point x="256" y="692" type="curve" smooth="yes"/>
      <point x="316" y="692"/>
      <point x="328" y="616"/>
    </contour>
    <component base="ohorn"/>
  </outline>
</glyph>
<glyph name="Euro" format="2">
  <advance width="652"/>
  <unicode hex="20AC"/>
  <outline>
    <contour>
      <point x="473" y="719" type="curve" smooth="yes"/>
      <point x="218" y="719"/>
      <point x="102" y="489"/>
      <point x="109" y="261" type="curve" smooth="yes"/>
      <point x="114" y="93"/>
      <point x="200" y="-10"/>
      <point x="369" y="-10" type="curve"/>
      <point x="482" y="-10"/>
      <point x="558" y="47"/>
      <point x="603" y="130" type="curve"/>
      <point x="577" y="150" type="line"/>
      <point x="543" y="83"/>
      <point x="476" y="21"/>
      <point x="367" y="21" type="curve"/>
      <point x="224" y="21"/>
      <point x="157" y="110"/>
      <point x="153" y="261" type="curve" smooth="yes"/>
      <point x="152" y="289"/>
      <point x="156" y="334"/>
      <point x="162" y="378" type="curve" smooth="yes"/>
      <point x="207" y="608"/>
      <point x="336" y="688"/>
      <point x="474" y="688" type="curve" smooth="yes"/>
      <point x="556" y="688"/>
      <point x="600" y="663"/>
      <point x="638" y="622" type="curve"/>
      <point x="650" y="624"/>
      <point x="635" y="663"/>
      <point x="612" y="664" type="curve"/>
      <point x="596" y="574" type="line"/>
      <point x="647" y="574" type="line"/>
      <point x="661" y="659" type="line"/>
      <point x="640" y="679"/>
      <point x="581" y="719"/>
    </contour>
    <contour>
      <point x="20" y="286" type="line"/>
      <point x="16" y="255" type="line"/>
      <point x="387" y="255" type="line"/>
      <point x="391" y="286" type="line"/>
    </contour>
    <contour>
      <point x="46" y="437" type="line"/>
      <point x="41" y="407" type="line"/>
      <point x="456" y="407" type="line"/>
      <point x="461" y="437" type="line"/>
    </contour>
  </outline>
</glyph>
<glyph name="uni20B4" format="2">
  <advance width="652"/>
  <unicode hex="20B4"/>
  <outline>
    <contour>
      <point x="50" y="426" type="line"/>
      <point x="648" y="426" type="line"/>
      <point x="652" y="456" type="line"/>
      <point x="55" y="456" type="line"/>
    </contour>
    <contour>
      <point x="26" y="285" type="line"/>
      <point x="623" y="285" type="line"/>
      <point x="627" y="316" type="line"/>
      <point x="30" y="316" type="line"/>
    </contour>
    <contour>
      <point x="306" y="-10" type="curve" smooth="yes"/>
      <point x="412" y="-10"/>
      <point x="492" y="36"/>
      <point x="540" y="79" type="curve"/>
      <point x="555" y="167" type="line"/>
      <point x="504" y="167" type="line"/>
      <point x="487" y="70" type="line"/>
      <point x="505" y="62"/>
      <point x="531" y="92"/>
      <point x="521" y="114" type="curve"/>
      <point x="477" y="61"/>
      <point x="400" y="21"/>
      <point x="304" y="21" type="curve" smooth="yes"/>
      <point x="180" y="21"/>
      <point x="102" y="73"/>
      <point x="100" y="158" type="curve" smooth="yes"/>
      <point x="98" y="212"/>
      <point x="130" y="263"/>
      <point x="194" y="292" type="curve"/>
      <point x="141" y="296" type="line"/>
      <point x="85" y="261"/>
      <point x="57" y="216"/>
      <point x="59" y="158" type="curve" smooth="yes"/>
      <point x="62" y="59"/>
      <point x="152" y="-10"/>
    </contour>
    <contour>
      <point x="515" y="438" type="line"/>
      <point x="557" y="466"/>
      <point x="594" y="514"/>
      <point x="592" y="578" type="curve" smooth="yes"/>
      <point x="590" y="662"/>
      <point x="510" y="720"/>
      <point x="385" y="720" type="curve" smooth="yes"/>
      <point x="287" y="720"/>
      <point x="212" y="683"/>
      <point x="179" y="653" type="curve"/>
      <point x="165" y="567" type="line"/>
      <point x="215" y="567" type="line"/>
      <point x="232" y="668" type="line"/>
      <point x="217" y="674"/>
      <point x="192" y="631"/>
      <point x="198" y="617" type="curve"/>
      <point x="232" y="656"/>
      <point x="293" y="689"/>
      <point x="379" y="689" type="curve" smooth="yes"/>
      <point x="496" y="689"/>
      <point x="549" y="640"/>
      <point x="550" y="580" type="curve" smooth="yes"/>
      <point x="552" y="514"/>
      <point x="508" y="464"/>
      <point x="457" y="442" type="curve"/>
    </contour>
  </outline>
</glyph>
<glyph name="f_f" format="2">
  <advance width="739"/>
  <unicode hex="FB00"/>
  <outline>
    <contour>
      <point x="56" y="508" type="line"/>
      <point x="53" y="477" type="line"/>
      <point x="499" y="477" type="line"/>
      <point x="502" y="508" type="line"/>
    </contour>
    <contour>
      <point x="356" y="706" type="curve" smooth="yes"/>
      <point x="405" y="706"/>
      <point x="444" y="690"/>
      <point x="455" y="687" type="curve"/>
      <point x="461" y="720" type="line"/>
      <point x="452" y="724"/>
      <point x="416" y="737"/>
      <point x="355" y="737" type="curve" smooth="yes"/>
      <point x="267" y="737"/>
      <point x="193" y="698"/>
      <point x="180" y="590" type="curve" smooth="yes"/>
      <point x="82" y="-223" type="line"/>
      <point x="118" y="-223" type="line"/>
      <point x="223" y="585" type="line" smooth="yes"/>
      <point x="235" y="676"/>
      <point x="279" y="706"/>
    </contour>
    <contour>
      <point x="412" y="508" type="line"/>
      <point x="409" y="477" type="line"/>
      <point x="752" y="477" type="line"/>
      <point x="756" y="508" type="line"/>
    </contour>
    <contour>
      <point x="713" y="721" type="curve" smooth="yes"/>
      <point x="762" y="721"/>
      <point x="801" y="705"/>
      <point x="809" y="702" type="curve"/>
      <point x="815" y="735" type="line"/>
      <point x="808" y="739"/>
      <point x="773" y="752"/>
      <point x="712" y="752" type="curve" smooth="yes"/>
      <point x="625" y="752"/>
      <point x="551" y="713"/>
      <point x="538" y="605" type="curve" smooth="yes"/>
      <point x="443" y="-193" type="line"/>
      <point x="479" y="-193" type="line"/>
      <point x="581" y="600" type="line" smooth="yes"/>
      <point x="593" y="691"/>
      <point x="637" y="721"/>
    </contour>
  </outline>
</glyph>
<glyph name="a.italic" format="2">
  <advance width="631"/>
  <outline>
    <contour>
      <point x="446" y="308" type="line"/>
      <point x="193" y="283"/>
      <point x="63" y="234"/>
      <point x="66" y="124" type="curve" smooth="yes"/>
      <point x="68" y="41"/>
      <point x="152" y="-10"/>
      <point x="253" y="-10" type="curve" smooth="yes"/>
      <point x="349" y="-10"/>
      <point x="416" y="38"/>
      <point x="450" y="112" type="curve"/>
      <point x="448" y="183" type="line"/>
      <point x="413" y="98"/>
      <point x="360" y="45"/>
      <point x="279" y="45" type="curve" smooth="yes"/>
      <point x="217" y="45"/>
      <point x="175" y="76"/>
      <point x="174" y="125" type="curve" smooth="yes"/>
      <point x="172" y="203"/>
      <point x="254" y="240"/>
      <point x="448" y="258" type="curve"/>
    </contour>
    <contour>
      <point x="436" y="0" type="line"/>
      <point x="623" y="0" type="line"/>
      <point x="622" y="45" type="line"/>
      <point x="622" y="45" type="line"/>
      <point x="566" y="45"/>
      <point x="526" y="52"/>
      <point x="525" y="81" type="curve" smooth="yes"/>
      <point x="517" y="359" type="line" smooth="yes"/>
      <point x="513" y="478"/>
      <point x="408" y="518"/>
      <point x="300" y="518" type="curve" smooth="yes"/>
      <point x="199" y="518"/>
      <point x="125" y="482"/>
      <point x="92" y="458" type="curve"/>
      <point x="95" y="355" type="line"/>
      <point x="196" y="355" type="line"/>
      <point x="193" y="458" type="line"/>
      <point x="163" y="446"/>
      <point x="138" y="427"/>
      <point x="145" y="394" type="curve"/>
      <point x="173" y="430"/>
      <point x="219" y="461"/>
      <point x="296" y="461" type="curve" smooth="yes"/>
      <point x="369" y="461"/>
      <point x="412" y="434"/>
      <point x="414" y="350" type="curve" smooth="yes"/>
      <point x="421" y="110" type="line"/>
      <point x="433" y="107" type="line"/>
    </contour>
  </outline>
</glyph>
<glyph name="blackdownpointingtriangle" format="2">
  <advance width="752"/>
  <outline>
    <contour>
      <point x="59" y="464" type="line"/>
      <point x="381" y="91" type="line"/>
      <point x="682" y="464" type="line"/>
    </contour>
  </outline>
</glyph>
<glyph name="blacksquare" format="2">
  <advance width="685"/>
  <outline>
    <contour>
      <point x="105" y="104" type="line"/>
      <point x="592" y="104" type="line"/>
      <point x="580" y="522" type="line"/>
      <point x="93" y="522" type="line"/>
    </contour>
  </outline>
</glyph>
<glyph name="four.lin" format="2">
  <advance width="652"/>
  <outline>
    <contour>
      <point x="29" y="213" type="line"/>
      <point x="611" y="213" type="line"/>
      <point x="617" y="249" type="line"/>
      <point x="55" y="249" type="line"/>
      <point x="58" y="225" type="line"/>
      <point x="530" y="704" type="line"/>
      <point x="541" y="710" type="line"/>
      <point x="488" y="710" type="line"/>
      <point x="35" y="252" type="line"/>
    </contour>
    <contour>
      <point x="435" y="64" type="curve" smooth="yes"/>
      <point x="549" y="710" type="line"/>
      <point x="508" y="710" type="line"/>
      <point x="504" y="693" type="line"/>
      <point x="394" y="64" type="line" smooth="yes"/>
      <point x="386" y="35"/>
      <point x="335" y="28"/>
      <point x="259" y="28" type="curve" smooth="yes"/>
      <point x="232" y="28" type="line"/>
      <point x="226" y="0" type="line"/>
      <point x="561" y="0" type="line"/>
      <point x="566" y="28" type="line"/>
      <point x="552" y="28" type="line" smooth="yes"/>
      <point x="476" y="28"/>
      <point x="428" y="35"/>
    </contour>
  </outline>
</glyph>
<glyph name="h.italic" format="2">
  <advance width="752"/>
  <outline>
    <contour>
      <point x="236" y="735" type="line"/>
      <point x="33" y="735" type="line"/>
      <point x="35" y="689" type="line"/>
      <point x="48" y="687" type="line" smooth="yes"/>
      <point x="108" y="678"/>
      <point x="134" y="671"/>
      <point x="135" y="642" type="curve" smooth="yes"/>
      <point x="151" y="81" type="line" smooth="yes"/>
      <point x="152" y="52"/>
      <point x="112" y="45"/>
      <point x="57" y="45" type="curve"/>
      <point x="54" y="45" type="line"/>
      <point x="55" y="0" type="line"/>
      <point x="345" y="0" type="line"/>
      <point x="344" y="45" type="line"/>
      <point x="341" y="45" type="line" smooth="yes"/>
      <point x="308" y="45"/>
      <point x="256" y="48"/>
      <point x="256" y="55" type="curve" smooth="yes"/>
    </contour>
    <contour>
      <point x="737" y="0" type="line"/>
      <point x="736" y="45" type="line"/>
      <point x="733" y="45" type="line" smooth="yes"/>
      <point x="679" y="45"/>
      <point x="637" y="52"/>
      <point x="636" y="81" type="curve" smooth="yes"/>
      <point x="628" y="357" type="line" smooth="yes"/>
      <point x="625" y="468"/>
      <point x="549" y="518"/>
      <point x="438" y="518" type="curve" smooth="yes"/>
      <point x="347" y="518"/>
      <point x="287" y="482"/>
      <point x="226" y="409" type="curve"/>
      <point x="228" y="341" type="line"/>
      <point x="281" y="415"/>
      <point x="343" y="455"/>
      <point x="422" y="455" type="curve" smooth="yes"/>
      <point x="497" y="455"/>
      <point x="522" y="421"/>
      <point x="525" y="346" type="curve" smooth="yes"/>
      <point x="533" y="55" type="line" smooth="yes"/>
      <point x="533" y="48"/>
      <point x="482" y="45"/>
      <point x="449" y="45" type="curve" smooth="yes"/>
      <point x="447" y="45" type="line"/>
      <point x="448" y="0" type="line"/>
    </contour>
  </outline>
</glyph>
<glyph name="rupeeIndian" format="2">
  <advance width="654"/>
  <outline>
    <contour>
      <point x="99" y="507" type="line"/>
      <point x="92" y="477" type="line"/>
      <point x="631" y="477" type="line"/>
      <point x="638" y="507" type="line"/>
    </contour>
    <contour>
      <point x="92" y="273" type="line"/>
      <point x="152" y="273" type="line" smooth="yes"/>
      <point x="357" y="273"/>
      <point x="483" y="361"/>
      <point x="478" y="510" type="curve" smooth="yes"/>
      <point x="476" y="590"/>
      <point x="417" y="667"/>
      <point x="276" y="687" type="curve"/>
      <point x="263" y="679" type="line"/>
      <point x="658" y="679" type="line"/>
      <point x="664" y="710" type="line"/>
      <point x="134" y="710" type="line"/>
      <point x="128" y="674" type="line"/>
      <point x="198" y="674" type="line" smooth="yes"/>
      <point x="360" y="674"/>
      <point x="432" y="601"/>
      <point x="434" y="510" type="curve" smooth="yes"/>
      <point x="438" y="391"/>
      <point x="366" y="304"/>
      <point x="159" y="304" type="curve" smooth="yes"/>
      <point x="63" y="304" type="line"/>
      <point x="57" y="277" type="line"/>
      <point x="347" y="0" type="line"/>
      <point x="459" y="0" type="line"/>
      <point x="465" y="31" type="line"/>
      <point x="449" y="31" type="line" smooth="yes"/>
      <point x="397" y="31"/>
      <point x="365" y="38"/>
      <point x="342" y="60" type="curve" smooth="yes"/>
      <point x="85" y="296" type="line"/>
    </contour>
  </outline>
</glyph>
<glyph name="two.oldtab" format="2">
  <advance width="652"/>
  <outline>
    <contour>
      <point x="561" y="36" type="line"/>
      <point x="84" y="36" type="line"/>
      <point x="67" y="34"/>
      <point x="67" y="25"/>
      <point x="87" y="23" type="curve"/>
      <point x="346" y="138"/>
      <point x="568" y="234"/>
      <point x="564" y="395" type="curve" smooth="yes"/>
      <point x="560" y="505"/>
      <point x="471" y="558"/>
      <point x="348" y="558" type="curve" smooth="yes"/>
      <point x="250" y="558"/>
      <point x="180" y="519"/>
      <point x="138" y="489" type="curve"/>
      <point x="121" y="392" type="line"/>
      <point x="173" y="392" type="line"/>
      <point x="190" y="490" type="line"/>
      <point x="159" y="489"/>
      <point x="171" y="483"/>
      <point x="150" y="450" type="curve"/>
      <point x="196" y="493"/>
      <point x="264" y="527"/>
      <point x="349" y="527" type="curve" smooth="yes"/>
      <point x="446" y="527"/>
      <point x="516" y="487"/>
      <point x="519" y="395" type="curve" smooth="yes"/>
      <point x="523" y="249"/>
      <point x="344" y="172"/>
      <point x="52" y="38" type="curve"/>
      <point x="48" y="0" type="line"/>
      <point x="556" y="0" type="line"/>
    </contour>
  </outline>
</glyph>
<glyph name="u.italic" format="2">
  <advance width="727"/>
  <outline>
    <contour>
      <point x="219" y="508" type="line"/>
      <point x="15" y="508" type="line"/>
      <point x="17" y="462" type="line"/>
      <point x="32" y="460" type="line" smooth="yes"/>
      <point x="91" y="452"/>
      <point x="118" y="444"/>
      <point x="119" y="415" type="curve" smooth="yes"/>
      <point x="127" y="151" type="line" smooth="yes"/>
      <point x="130" y="40"/>
      <point x="207" y="-10"/>
      <point x="316" y="-10" type="curve" smooth="yes"/>
      <point x="407" y="-10"/>
      <point x="466" y="25"/>
      <point x="524" y="97" type="curve"/>
      <point x="522" y="166" type="line"/>
      <point x="471" y="92"/>
      <point x="408" y="53"/>
      <point x="332" y="53" type="curve" smooth="yes"/>
      <point x="258" y="53"/>
      <point x="232" y="87"/>
      <point x="230" y="163" type="curve" smooth="yes"/>
    </contour>
    <contour>
      <point x="595" y="508" type="line"/>
      <point x="377" y="508" type="line"/>
      <point x="379" y="462" type="line"/>
      <point x="405" y="459" type="line" smooth="yes"/>
      <point x="466" y="452"/>
      <point x="494" y="444"/>
      <point x="495" y="415" type="curve" smooth="yes"/>
      <point x="504" y="117" type="line"/>
      <point x="514" y="104" type="line"/>
      <point x="517" y="0" type="line"/>
      <point x="711" y="0" type="line"/>
      <point x="710" y="45" type="line"/>
      <point x="706" y="45" type="line" smooth="yes"/>
      <point x="650" y="45"/>
      <point x="609" y="52"/>
      <point x="608" y="81" type="curve" smooth="yes"/>
    </contour>
  </outline>
</glyph>
<glyph name="z.italic" format="2">
  <advance width="548"/>
  <outline>
    <contour>
      <point x="139" y="39" type="line"/>
      <point x="502" y="453" type="line"/>
      <point x="501" y="508" type="line"/>
      <point x="51" y="508" type="line"/>
      <point x="55" y="346" type="line"/>
      <point x="117" y="346" type="line"/>
      <point x="126" y="411" type="line" smooth="yes"/>
      <point x="130" y="447"/>
      <point x="169" y="454"/>
      <point x="270" y="454" type="curve" smooth="yes"/>
      <point x="423" y="454" type="line"/>
      <point x="405" y="467" type="line"/>
      <point x="45" y="60" type="line"/>
      <point x="46" y="0" type="line"/>
      <point x="528" y="0" type="line"/>
      <point x="523" y="180" type="line"/>
      <point x="460" y="180" type="line"/>
      <point x="451" y="100" type="line" smooth="yes"/>
      <point x="446" y="62"/>
      <point x="407" y="55"/>
      <point x="306" y="55" type="curve" smooth="yes"/>
      <point x="125" y="55" type="line"/>
    </contour>
  </outline>
</glyph>
